<?xml version="1.0" encoding="UTF-8"?>
<svg xmlns="http://www.w3.org/2000/svg" xmlns:xlink="http://www.w3.org/1999/xlink" width="35px" height="35px" viewBox="0 0 35 35" version="1.1">
<g id="surface1">
<path style=" stroke:none;fill-rule:nonzero;fill:rgb(0%,0%,0%);fill-opacity:1;" d="M 7.316406 6.117188 L 27.480469 6.117188 C 28.164062 6.117188 28.78125 6.734375 28.78125 7.417969 L 28.78125 27.585938 C 28.78125 28.269531 28.164062 28.882812 27.480469 28.882812 L 7.316406 28.882812 C 6.632812 28.882812 6.015625 28.269531 6.015625 27.585938 L 6.015625 7.417969 C 6.015625 6.734375 6.632812 6.117188 7.316406 6.117188 Z M 22.183594 18.902344 L 25.328125 18.902344 L 25.464844 15.894531 L 22.183594 15.894531 L 22.183594 13.671875 C 22.183594 12.816406 22.351562 12.339844 23.445312 12.339844 L 25.359375 12.339844 L 25.429688 9.535156 C 25.429688 9.535156 24.574219 9.398438 23.34375 9.398438 C 20.335938 9.398438 19.003906 11.277344 19.003906 13.296875 L 19.003906 15.894531 L 16.78125 15.894531 L 16.78125 18.902344 L 19.003906 18.902344 L 19.003906 27.242188 L 22.183594 27.242188 Z M 22.183594 18.902344 "/>
</g>
</svg>
