<?xml version="1.0" encoding="UTF-8"?>
<svg xmlns="http://www.w3.org/2000/svg" xmlns:xlink="http://www.w3.org/1999/xlink" width="35px" height="35px" viewBox="0 0 35 35" version="1.1">
<g id="surface1">
<path style=" stroke:none;fill-rule:evenodd;fill:rgb(5.882353%,5.882353%,5.882353%);fill-opacity:1;" d="M 17.5 26.25 C 22.332031 26.25 26.25 22.332031 26.25 17.5 C 26.25 12.667969 22.332031 8.75 17.5 8.75 C 12.667969 8.75 8.75 12.667969 8.75 17.5 C 8.75 22.332031 12.667969 26.25 17.5 26.25 Z M 17.5 23.332031 C 20.722656 23.332031 23.332031 20.722656 23.332031 17.5 C 23.332031 14.277344 20.722656 11.667969 17.5 11.667969 C 14.277344 11.667969 11.667969 14.277344 11.667969 17.5 C 11.667969 20.722656 14.277344 23.332031 17.5 23.332031 Z M 17.5 23.332031 "/>
<path style=" stroke:none;fill-rule:nonzero;fill:rgb(5.882353%,5.882353%,5.882353%);fill-opacity:1;" d="M 26.25 7.292969 C 25.445312 7.292969 24.792969 7.945312 24.792969 8.75 C 24.792969 9.554688 25.445312 10.207031 26.25 10.207031 C 27.054688 10.207031 27.707031 9.554688 27.707031 8.75 C 27.707031 7.945312 27.054688 7.292969 26.25 7.292969 Z M 26.25 7.292969 "/>
<path style=" stroke:none;fill-rule:evenodd;fill:rgb(5.882353%,5.882353%,5.882353%);fill-opacity:1;" d="M 2.410156 6.234375 C 1.457031 8.109375 1.457031 10.558594 1.457031 15.457031 L 1.457031 19.542969 C 1.457031 24.441406 1.457031 26.890625 2.410156 28.765625 C 3.25 30.410156 4.589844 31.75 6.234375 32.589844 C 8.109375 33.542969 10.558594 33.542969 15.457031 33.542969 L 19.542969 33.542969 C 24.441406 33.542969 26.890625 33.542969 28.765625 32.589844 C 30.410156 31.75 31.75 30.410156 32.589844 28.765625 C 33.542969 26.890625 33.542969 24.441406 33.542969 19.542969 L 33.542969 15.457031 C 33.542969 10.558594 33.542969 8.109375 32.589844 6.234375 C 31.75 4.589844 30.410156 3.25 28.765625 2.410156 C 26.890625 1.457031 24.441406 1.457031 19.542969 1.457031 L 15.457031 1.457031 C 10.558594 1.457031 8.109375 1.457031 6.234375 2.410156 C 4.589844 3.25 3.25 4.589844 2.410156 6.234375 Z M 19.542969 4.375 L 15.457031 4.375 C 12.960938 4.375 11.261719 4.378906 9.949219 4.484375 C 8.671875 4.589844 8.015625 4.777344 7.558594 5.011719 C 6.460938 5.570312 5.570312 6.460938 5.011719 7.558594 C 4.777344 8.015625 4.589844 8.671875 4.484375 9.949219 C 4.378906 11.261719 4.375 12.960938 4.375 15.457031 L 4.375 19.542969 C 4.375 22.039062 4.378906 23.738281 4.484375 25.050781 C 4.589844 26.328125 4.777344 26.984375 5.011719 27.441406 C 5.570312 28.539062 6.460938 29.429688 7.558594 29.988281 C 8.015625 30.222656 8.671875 30.410156 9.949219 30.515625 C 11.261719 30.621094 12.960938 30.625 15.457031 30.625 L 19.542969 30.625 C 22.039062 30.625 23.738281 30.621094 25.050781 30.515625 C 26.328125 30.410156 26.984375 30.222656 27.441406 29.988281 C 28.539062 29.429688 29.429688 28.539062 29.988281 27.441406 C 30.222656 26.984375 30.410156 26.328125 30.515625 25.050781 C 30.621094 23.738281 30.625 22.039062 30.625 19.542969 L 30.625 15.457031 C 30.625 12.960938 30.621094 11.261719 30.515625 9.949219 C 30.410156 8.671875 30.222656 8.015625 29.988281 7.558594 C 29.429688 6.460938 28.539062 5.570312 27.441406 5.011719 C 26.984375 4.777344 26.328125 4.589844 25.050781 4.484375 C 23.738281 4.378906 22.039062 4.375 19.542969 4.375 Z M 19.542969 4.375 "/>
</g>
</svg>
