<?xml version="1.0" encoding="UTF-8"?>
<svg xmlns="http://www.w3.org/2000/svg" xmlns:xlink="http://www.w3.org/1999/xlink" width="35px" height="35px" viewBox="0 0 35 35" version="1.1">
<g id="surface1">
<path style=" stroke:none;fill-rule:nonzero;fill:rgb(0%,0%,0%);fill-opacity:1;" d="M 32.265625 0 L 2.734375 0 C 1.222656 0 0 1.222656 0 2.734375 L 0 32.265625 C 0 33.777344 1.222656 35 2.734375 35 L 32.265625 35 C 33.777344 35 35 33.777344 35 32.265625 L 35 2.734375 C 35 1.222656 33.777344 0 32.265625 0 Z M 24.484375 14.78125 C 24.492188 14.929688 24.492188 15.085938 24.492188 15.242188 C 24.492188 19.996094 20.875 25.476562 14.257812 25.476562 C 12.230469 25.476562 10.335938 24.882812 8.75 23.863281 C 9.03125 23.898438 9.316406 23.914062 9.609375 23.914062 C 11.292969 23.914062 12.84375 23.335938 14.074219 22.375 C 12.503906 22.347656 11.171875 21.308594 10.71875 19.878906 C 10.9375 19.921875 11.164062 19.941406 11.394531 19.941406 C 11.722656 19.941406 12.046875 19.898438 12.34375 19.8125 C 10.699219 19.484375 9.460938 18.027344 9.460938 16.28125 L 9.460938 16.242188 C 9.945312 16.507812 10.5 16.671875 11.085938 16.695312 C 10.125 16.050781 9.488281 14.941406 9.488281 13.699219 C 9.488281 13.042969 9.664062 12.421875 9.972656 11.886719 C 11.75 14.066406 14.398438 15.496094 17.382812 15.648438 C 17.320312 15.386719 17.289062 15.113281 17.289062 14.828125 C 17.289062 12.84375 18.902344 11.230469 20.882812 11.230469 C 21.914062 11.230469 22.851562 11.667969 23.507812 12.367188 C 24.328125 12.203125 25.09375 11.90625 25.792969 11.492188 C 25.523438 12.332031 24.953125 13.035156 24.210938 13.480469 C 24.9375 13.390625 25.632812 13.199219 26.277344 12.914062 C 25.796875 13.636719 25.191406 14.265625 24.484375 14.78125 Z M 24.484375 14.78125 "/>
</g>
</svg>
